<?xml version="1.0" encoding="UTF-8" standalone="no"?>
<!-- Created with Inkscape (http://www.inkscape.org/) -->

<svg
   width="1831.319"
   height="2126.4561"
   viewBox="0 0 484.53647 562.62483"
   version="1.1"
   id="svg1"
   xml:space="preserve"
   xmlns="http://www.w3.org/2000/svg"
   xmlns:svg="http://www.w3.org/2000/svg"><defs
     id="defs1" /><g
     id="layer1"><path
       style="fill:#f5f5f5;fill-opacity:1;stroke-width:0.999997"
       d="m 51.054077,512.2437 c -1.54092,-0.89643 -1.35295,-3.50288 0.30713,-4.25926 1.18835,-0.54145 380.625393,-0.54145 381.813743,0 1.69373,0.77171 1.84424,3.41916 0.24311,4.27605 -0.928,0.49665 -381.510123,0.47994 -382.363983,-0.0168 z M 240.26516,497.76614 c -0.66059,-0.5302 -0.6694,-1.03875 -0.83454,-48.17439 l -0.16691,-47.63851 -0.87968,-1.87609 c -1.2374,-2.63897 -3.00281,-4.44867 -5.57527,-5.71509 l -2.21034,-1.08815 h -18.53404 -18.53404 l -1.85125,0.8683 c -3.14109,1.47329 -5.29289,3.83235 -6.41403,7.03179 -0.285,0.81335 -0.44424,12.21363 -0.59143,42.33984 -0.17734,36.30031 -0.26826,41.64564 -0.76085,44.73191 -0.79852,5.0031 -0.8798,5.29836 -1.65811,6.02347 -0.9238,0.86064 -2.00839,0.82594 -3.06822,-0.0982 -0.75478,-0.65814 -0.95166,-1.30889 -1.59068,-5.25767 -0.71671,-4.42882 -0.73117,-5.21612 -0.83869,-45.62798 -0.12189,-45.81514 -0.23217,-43.37853 2.171,-47.97077 2.38831,-4.56388 7.23873,-8.38086 12.3137,-9.69016 3.02304,-0.77992 38.69455,-0.79184 41.68114,-0.014 6.75378,1.75914 12.2401,7.27052 13.99021,14.05413 0.46999,1.82174 0.52916,6.98298 0.52916,46.15065 v 44.09952 l 8.59587,-0.007 c 4.72773,-0.005 35.78554,-0.22597 69.01733,-0.49299 33.2318,-0.26702 61.9631,-0.48896 63.84732,-0.49321 l 3.42589,-0.007 -0.0938,-128.2704 c -0.0885,-121.22267 -0.12635,-128.46299 -0.68815,-131.77551 -2.8009,-16.51483 -8.91145,-29.91242 -19.2306,-42.16368 -1.97959,-2.35023 -49.15024,-48.30159 -49.58324,-48.30159 -0.0997,0 -0.18222,16.93721 -0.18351,37.63822 -0.005,85.0126 -1.23789,305.36582 -1.71493,306.59216 -0.46101,1.18509 -1.84574,1.66645 -3.18002,1.10541 -0.55635,-0.23391 -1.10519,-0.66934 -1.21963,-0.96762 -0.36429,-0.94931 -1.5216,-209.30265 -1.60781,-289.45474 -0.0259,-24.05175 -0.13855,-48.10218 -0.25044,-53.4454 l -0.20341,-9.71572 -17.83647,-17.24102 c -9.81004,-9.48257 -17.92189,-17.238435 -18.02628,-17.23528 -0.10447,0.0025 -10.41484,8.6032 -22.91209,19.11119 -12.49725,10.50802 -34.87495,29.32037 -49.72821,41.80523 -14.85326,12.48488 -27.96963,23.59937 -29.1475,24.69887 -7.01674,6.54986 -14.80909,18.59259 -20.09057,31.0491 -3.88499,9.16285 -6.22865,19.3746 -9.15534,39.89152 -0.38147,2.67419 -0.66485,12.72445 -1.19539,42.39516 -0.38247,21.38953 -0.76963,39.38665 -0.86036,39.99359 -0.34149,2.28474 -2.6224,3.17555 -4.101,1.60166 l -0.75149,-0.79993 -0.66319,-34.83538 c -0.74683,-39.22874 -0.7033,-45.71265 0.36057,-53.69622 2.10671,-15.80954 4.64991,-27.48461 7.59888,-34.88421 5.77414,-14.4886 13.32036,-26.7281 21.62529,-35.07485 2.1676,-2.17853 23.95964,-20.79291 53.0826,-45.34225 27.17297,-22.90556 49.43034,-41.822482 49.46082,-42.037599 0.0667,-0.470179 -29.20249,-28.765832 -29.75546,-28.765832 -0.39708,0 -116.67889,112.206701 -125.36514,120.971701 -13.24024,13.36028 -20.753183,28.1582 -23.916243,47.10675 -0.54658,3.27437 -0.60093,11.28443 -0.82574,121.67744 -0.13237,64.9948 -0.32996,119.52431 -0.43912,121.17673 -0.10914,1.65241 -0.42738,7.66059 -0.70717,13.35153 -0.54256,11.0354 -0.64507,11.57014 -2.29754,11.98488 -1.21994,0.30618 -2.75509,-0.57496 -2.98409,-1.71284 -0.17804,-0.88455 -0.43338,-5.28125 -1.26541,-21.78756 -0.54278,-10.76853 -0.79814,-232.23042 -0.27577,-239.18215 1.4912,-19.84533 8.7506,-37.5929 21.700723,-53.0533 2.2626,-2.70119 134.41239,-130.662321 135.4229,-131.130493 0.39959,-0.185114 1.08178,-0.247403 1.516,-0.13842 0.43423,0.10901 8.63766,7.789212 18.22983,17.067196 9.59219,9.277972 17.55713,16.869035 17.6999,16.869035 0.14277,0 9.33828,-7.660481 20.43447,-17.023288 21.77958,-18.377302 21.14089,-17.926743 22.90762,-16.159996 l 0.86636,0.86636 -0.16273,37.50538 -0.16273,37.505386 26.3577,25.47136 c 14.49673,14.00924 27.40727,26.6731 28.6901,28.14191 13.25434,15.17595 21.01752,33.56887 22.60685,53.56142 0.53015,6.66876 0.49923,260.72036 -0.0319,261.88601 -0.2538,0.55706 -0.80433,0.96184 -1.58563,1.16583 -0.69519,0.18152 -25.68329,0.46201 -59.61538,0.66918 -32.13019,0.19619 -67.35657,0.4391 -78.28083,0.53981 -17.90888,0.16511 -19.92796,0.13041 -20.52993,-0.35275 z m 74.19533,-419.066774 -0.0873,-13.301843 -14.53225,12.216923 c -7.99275,6.719317 -14.57474,12.339836 -14.62663,12.490051 -0.0519,0.150204 6.48762,6.633851 14.53227,14.408103 l 14.62661,14.13498 0.0873,-13.32318 c 0.0479,-7.327751 0.0479,-19.309015 0,-26.625034 z M 184.93846,330.0394 c -3.99435,-1.28734 -7.19656,-4.12606 -9.06512,-8.0361 l -1.03692,-2.16984 v -37.38785 -37.38786 l 1.03692,-2.16982 c 1.89565,-3.9667 5.10271,-6.77947 9.17494,-8.04689 1.91943,-0.5974 3.43186,-0.63224 27.28919,-0.62849 20.3281,0.005 25.59262,0.0932 26.97625,0.4617 5.64382,1.50272 9.92451,6.41977 10.78337,12.38642 0.44792,3.11178 0.45494,67.59013 0.007,70.76987 -0.70539,5.01512 -3.9676,9.42926 -8.58496,11.61646 l -2.25613,1.06871 -26.20488,0.0705 c -24.6912,0.0665 -26.31553,0.0348 -28.12036,-0.54683 z m 51.88862,-7.74576 c 2.17815,-0.46459 4.3352,-2.4298 4.89998,-4.46419 0.50784,-1.8293 0.52322,-68.88314 0.0163,-70.70894 -0.46058,-1.65866 -2.36485,-3.7461 -3.92032,-4.29742 -0.96806,-0.34312 -6.31007,-0.4359 -25.09797,-0.4359 -13.12747,0 -24.4447,0.122 -25.1494,0.271 -1.81083,0.38304 -3.99855,2.64257 -4.50466,4.65251 -0.28431,1.12908 -0.38975,10.65773 -0.38975,35.22214 0,37.93729 -0.11304,36.12767 2.39203,38.27195 0.75712,0.64808 1.99329,1.31701 2.74704,1.48648 2.07218,0.46596 46.82316,0.46812 49.00684,0.003 z"
       id="path1" /></g></svg>
